<svg width="92" height="31" viewBox="0 0 92 31" fill="none" xmlns="http://www.w3.org/2000/svg">
<g id="favicon 1">
<g id="Clip path group">
<mask id="mask0_233_8" style="mask-type:luminance" maskUnits="userSpaceOnUse" x="0" y="0" width="36" height="31">
<g id="clip0_2176_44">
<path id="Vector" d="M35.7131 0H0V31H35.7131V0Z" fill="white"/>
</g>
</mask>
<g mask="url(#mask0_233_8)">
<g id="Group">
<path id="Vector_2" d="M2.99209 11.9364C4.3105 7.66568 6.99517 4.5749 11.046 2.66403C15.591 0.802721 20.0043 1.06504 24.286 3.451C24.6658 3.19931 25.0326 2.92883 25.3853 2.64057C25.3464 2.5779 25.2981 2.52161 25.2419 2.47373C23.932 1.57362 22.477 0.904345 20.9401 0.495048C19.9634 0.274223 18.9736 0.114865 17.9768 0.0179161C14.2407 -0.146974 10.8311 0.814432 7.74808 2.90214C4.5669 5.20261 2.50364 8.26162 1.5583 12.0793C1.21714 13.8419 1.58357 15.4469 2.65761 16.8942C2.48107 15.2223 2.59256 13.5697 2.99209 11.9364Z" fill="#F67A45"/>
<path id="Vector_3" d="M35.7097 7.40745C35.6999 6.93724 35.4609 6.74653 34.9927 6.83538C34.9905 6.68962 34.9664 6.54497 34.921 6.40634C34.8092 6.00053 34.5463 5.77818 34.1323 5.7393C34.0228 5.45703 33.8867 5.18569 33.7261 4.92886C33.4299 4.49915 33.0236 4.30846 32.5072 4.35677L32.077 4.45211C32.8459 5.11227 33.2442 5.95451 33.2718 6.97884C33.3258 7.53015 33.3019 8.08635 33.2002 8.64739C33.1159 9.21804 32.8849 9.71862 32.5071 10.1491C32.3839 10.2285 32.2564 10.2761 32.1247 10.2921C32.2679 10.1724 32.3755 10.0157 32.4354 9.83922C32.7345 9.11295 32.8888 8.33553 32.8896 7.55042C32.8789 6.52513 32.5683 5.60347 31.9578 4.78541C31.4571 4.27955 30.9075 4.22391 30.3088 4.6185C29.7494 5.19481 29.4388 5.88608 29.3769 6.69228C29.1066 6.7761 28.8228 6.80841 28.5405 6.78764C28.4651 6.08175 28.2181 5.44612 27.7996 4.88075C27.6629 4.71185 27.4919 4.57373 27.2978 4.4755C26.6769 4.44371 26.0546 4.44371 25.4337 4.4755C25.2276 4.55531 25.0403 4.6771 24.884 4.83308C24.7267 5.07537 24.5753 5.32168 24.43 5.57202C24.2991 5.61018 24.1713 5.65798 24.0475 5.71502C23.624 6.12334 23.4168 6.6239 23.4262 7.21674C23.0273 7.20087 22.6277 7.2168 22.2313 7.26435C22.4968 7.56877 22.5367 7.90246 22.3508 8.26547C22.3448 8.02057 22.2961 7.77858 22.2068 7.55042C22.1359 7.38271 22.0164 7.29529 21.8483 7.28804C21.8145 7.34768 21.7744 7.40361 21.7288 7.45488C21.5986 7.86966 21.6703 8.24309 21.9439 8.57528C22.4376 8.59909 22.9315 8.60703 23.4256 8.59909C23.5071 8.95212 23.6443 9.29002 23.832 9.6002C23.9439 9.75508 24.0953 9.84256 24.286 9.86253C24.5899 10.1813 24.877 10.5154 25.1464 10.8636L25.3376 10.959C25.895 10.9934 26.4543 10.9854 27.0105 10.9351C27.1399 10.9201 27.271 10.9366 27.3927 10.9831C27.2308 11.264 27.0204 11.5141 26.7713 11.722C26.4414 11.8388 26.1217 11.9823 25.8154 12.1511C25.2754 12.4671 24.8691 12.9041 24.5965 13.4621C24.1211 12.4405 23.3165 11.932 22.1827 11.9366C21.3399 10.581 20.161 10.1519 18.6456 10.6493C18.3244 10.4093 17.9703 10.2167 17.5941 10.0772C17.5119 9.79792 17.4638 9.50981 17.4508 9.21909C17.4429 9.07562 17.4509 8.93172 17.4748 8.78999L17.5464 8.7185C17.849 8.72167 18.1518 8.72167 18.4546 8.7185C18.6809 8.6676 18.8322 8.53256 18.9086 8.31321C18.9208 7.9453 18.9608 7.57876 19.0281 7.2168C19.0752 7.0357 19.0912 6.84499 19.076 6.64473C19.1723 6.65248 19.2691 6.64442 19.3627 6.62086C19.4294 6.57529 19.4613 6.51174 19.4583 6.43021C19.3026 6.04792 19.127 5.67397 18.9323 5.30984C18.9836 5.17252 18.9919 5.02295 18.9562 4.88082C18.8419 4.65307 18.7537 4.41319 18.6932 4.16573C18.7565 4.08633 18.8202 4.00686 18.8844 3.92731C19.2534 3.57255 19.365 3.14351 19.219 2.64019C19.1288 2.83328 19.0077 3.01046 18.8605 3.16484C18.931 2.87179 18.9469 2.56986 18.9083 2.25907C18.8732 2.17271 18.8248 2.09231 18.7649 2.02073C18.7031 2.30339 18.5677 2.54176 18.3587 2.73583C18.3448 2.774 18.3198 2.80718 18.2869 2.83116C18.2631 2.64145 18.2551 2.4501 18.263 2.25907C18.2066 2.09919 18.117 1.95299 18 1.83006C18.0111 2.18937 17.8677 2.4754 17.5699 2.68816C17.5699 2.59912 17.5937 2.51168 17.6415 2.42584C17.6256 2.402 17.6096 2.37817 17.5937 2.35433C17.0571 2.66013 16.4835 2.81905 15.8729 2.83109C16.1117 2.70453 16.3507 2.57741 16.5899 2.44974C16.4567 2.40313 16.3133 2.38721 16.1598 2.402C15.6458 2.43099 15.1425 2.56065 14.6787 2.78357C14.6345 2.82184 14.5867 2.82979 14.5352 2.8074C14.758 2.60794 15.0178 2.45405 15.3 2.35448C15.2837 2.31451 15.2518 2.29862 15.2044 2.30682C13.7088 2.69655 13.0475 3.66591 13.2206 5.21488C13.3177 5.82329 13.4946 6.41632 13.7466 6.97884C13.793 7.3297 13.7686 7.68626 13.6749 8.02757C13.508 8.35934 13.3163 8.67808 13.1013 8.98101C12.063 9.09373 11.1867 9.52277 10.4725 10.2683C7.98191 10.3924 6.71523 11.6954 6.67259 14.1774C6.60837 14.2331 6.55205 14.2973 6.50531 14.3681C6.10951 14.7442 5.86256 15.2051 5.76442 15.7507C5.74849 16.1954 5.73256 16.6403 5.71663 17.0855C5.44971 17.4747 5.19476 17.8719 4.95179 18.2772C4.9351 18.6805 5.02278 19.0619 5.2148 19.4213C5.12892 19.6064 5.05703 19.7976 4.99973 19.9934C4.84386 20.6809 4.78748 21.3872 4.83231 22.0907C3.82093 21.6345 2.87302 21.0496 2.01223 20.3506C1.20465 19.667 0.551435 18.8644 0.0525654 17.9431C0.00707695 18.0108 -0.00885391 18.0902 0.00477259 18.1815C0.0515379 18.6688 0.15581 19.1488 0.315426 19.6117C0.988136 21.3234 2.12733 22.6264 3.73299 23.5209C5.57437 24.5976 7.55 25.3286 9.65991 25.7139C11.1348 26.0367 12.6434 26.1807 14.1529 26.143C15.5153 26.1806 16.8777 26.0687 18.2157 25.8092C20.5791 25.4742 22.8416 24.7988 25.003 23.7831C26.9134 22.9382 28.5941 21.7702 30.0453 20.2792C31.6996 18.4559 32.4803 16.3106 32.3875 13.8434C32.0983 15.246 31.5247 16.5174 30.6666 17.6572C29.1624 19.5066 27.3221 20.9288 25.146 21.9239C23.5736 22.6168 21.9419 23.1673 20.2706 23.5686C19.937 23.6208 19.6024 23.6684 19.2669 23.7117C19.2029 23.4729 19.0978 23.247 18.9561 23.0442C18.9482 22.9727 18.9402 22.9012 18.9323 22.8297C19.0153 22.0426 18.9831 21.2477 18.8367 20.4699C18.8625 20.2145 18.8944 19.9603 18.9323 19.7071C19.0449 19.5539 19.1166 19.379 19.1474 19.1825C19.1633 18.9442 19.1792 18.7058 19.1952 18.4674C19.6207 17.9204 19.8755 17.3006 19.9599 16.6082C20.986 17.2872 22.1013 17.4779 23.3057 17.1802C24.0271 17.3028 24.7441 17.4458 25.4567 17.6093C25.7001 17.5865 25.9361 17.5135 26.1497 17.3948C26.4276 17.1733 26.6836 16.9258 26.9145 16.6559C27.5334 16.03 28.0424 15.3048 28.4201 14.5105C28.8546 13.3724 29.1593 12.1891 29.3286 10.9831C29.4128 10.556 29.5662 10.1454 29.7827 9.76742C29.8146 9.73561 29.8465 9.73561 29.8783 9.76742C29.9033 9.81224 29.9356 9.85254 29.9739 9.88665C30.1737 10.3164 30.4923 10.6262 30.9299 10.816C31.6318 10.8175 32.3328 10.7858 33.0329 10.7207C33.22 10.6318 33.3898 10.5107 33.5348 10.3631C33.7753 10.0426 33.9684 9.68942 34.1085 9.31432C34.2287 9.28059 34.3482 9.24092 34.4669 9.19516C34.8036 8.897 34.979 8.52351 34.9929 8.07482C35.5065 8.15052 35.7455 7.92807 35.7097 7.40745ZM28.2054 7.55042C28.1875 7.98349 28.1315 8.41421 28.0382 8.8376C28.0143 8.52023 28.0063 8.20235 28.0143 7.88417C27.884 6.96818 27.7167 6.06236 27.5124 5.16676C28.0181 5.87794 28.2491 6.6725 28.2054 7.55042ZM23.7125 8.5516H23.8558C23.8115 8.86588 23.7637 8.86582 23.7125 8.5516ZM23.6169 7.16906C23.6608 7.00147 23.7405 6.85844 23.8558 6.73996C23.9852 6.87097 24.0649 7.02987 24.0948 7.21674C23.9339 7.23212 23.7715 7.21593 23.6169 7.16906ZM24.0712 8.69463C24.0483 8.65067 24.04 8.60064 24.0473 8.55166C24.1692 8.54869 24.2409 8.48514 24.2624 8.36095C24.309 8.10935 24.333 7.85404 24.3342 7.59816C24.2868 7.32084 24.1896 7.05436 24.0473 6.81151C24.1903 6.66469 24.3416 6.65675 24.5014 6.7877C24.6439 6.99893 24.7188 7.24824 24.7165 7.50281C24.7671 7.93978 24.6954 8.35295 24.5014 8.74231C24.3465 8.93104 24.2032 8.91517 24.0712 8.69463ZM25.7921 9.40974C25.6982 9.71013 25.515 9.94052 25.2424 10.101C25.0685 10.1328 24.8902 10.1328 24.7163 10.101C24.6402 10.0726 24.5739 10.0229 24.5252 9.95801C24.7682 10.022 24.9833 9.96632 25.1704 9.7911C25.5053 9.06843 25.6407 8.30564 25.5767 7.50281C25.5473 6.97196 25.409 6.45271 25.1704 5.97727C25.0414 5.7056 24.8263 5.57054 24.5252 5.57209C24.8784 5.3269 25.205 5.36662 25.505 5.69126C25.751 6.13281 25.9054 6.61918 25.9591 7.12145C26.0531 7.88783 25.9974 8.65061 25.7921 9.40974ZM26.3894 10.2202C26.5854 9.87995 26.7227 9.50931 26.7958 9.12373C26.8898 8.58874 26.9298 8.04574 26.9153 7.50281C26.8767 6.58496 26.6297 5.72686 26.1744 4.92849C26.1215 4.81216 26.028 4.71893 25.9114 4.66616C26.3003 4.71398 26.595 4.91263 26.7956 5.2621C27.134 5.86949 27.3013 6.52104 27.2975 7.21674C27.4002 8.02001 27.3285 8.81448 27.0823 9.60014C26.9926 9.80778 26.8717 10.0007 26.7239 10.1722C26.6133 10.2421 26.5021 10.2581 26.3894 10.2202ZM17.427 3.78431C17.8033 3.7172 18.1459 3.79667 18.4547 4.02272C18.5406 4.34335 18.6362 4.66117 18.7415 4.97616C18.3307 4.86358 17.9483 4.9192 17.5944 5.143C17.8552 5.32483 18.1358 5.47676 18.4308 5.59592C18.5293 5.45684 18.6727 5.35581 18.837 5.30984C18.9771 5.63342 19.089 5.96837 19.1717 6.31104C19.0389 6.35934 18.9115 6.40702 18.7892 6.45402C18.701 6.44081 18.6373 6.47255 18.5981 6.54937C18.6691 6.5942 18.7542 6.61119 18.837 6.59705C18.8481 6.72613 18.8318 6.85608 18.7892 6.97847C18.6687 7.04866 18.5404 7.10464 18.4069 7.14532C18.5329 7.16894 18.6613 7.17693 18.7892 7.16912C18.7618 7.31048 18.7135 7.44707 18.6459 7.57429C18.7539 7.78671 18.7618 8.00122 18.6698 8.21791C18.5891 8.28357 18.4871 8.31749 18.383 8.31321C18.1963 8.28016 18.0125 8.23236 17.8333 8.17024C17.3555 8.05169 16.9024 7.84995 16.495 7.57429C16.307 7.27775 16.1848 6.94456 16.1365 6.59705C15.8444 6.81051 15.5894 6.76284 15.3717 6.45402C15.1664 6.13538 15.1584 5.81757 15.3479 5.50059C15.3797 5.48469 15.4116 5.4688 15.4435 5.45292C15.6491 5.41934 15.8164 5.4829 15.9453 5.64359C16.0635 5.9112 16.2076 6.16666 16.3755 6.40634L16.4233 5.88171C16.5628 5.31333 16.8973 4.90016 17.427 4.64218C17.4081 4.462 17.3842 4.27927 17.3553 4.094C17.3545 3.98659 17.3791 3.88051 17.427 3.78431ZM17.164 10.3155C17.0298 10.4977 16.8686 10.6584 16.686 10.7923C16.6701 10.7685 16.6542 10.7446 16.6382 10.7208C16.7842 10.3913 16.8963 10.0478 16.9729 9.69575C17.0299 9.71819 17.0617 9.76587 17.0684 9.83884L17.164 10.3155ZM18.574 16.8468C18.583 16.9212 18.5431 16.9529 18.4546 16.9421C18.5055 16.9866 18.5693 17.0025 18.6457 16.9897C18.7675 16.9707 18.8825 16.9215 18.9803 16.8468C18.9962 16.8864 19.0121 16.9262 19.0281 16.9659C19.0071 17.1658 18.9275 17.3327 18.7891 17.4665L17.881 16.9659C17.2914 16.7457 16.7019 16.7457 16.1125 16.9659C15.7323 17.1793 15.3321 17.355 14.9177 17.4906C14.5685 17.5449 14.2339 17.4973 13.9139 17.3475C13.5461 17.131 13.2219 16.8481 12.9579 16.5133C12.8888 16.3924 12.8327 16.2646 12.7906 16.1318C13.4673 16.9184 14.3197 17.2123 15.3479 17.0138L15.0611 16.9661C15.2526 16.7593 15.4605 16.568 15.6824 16.394C15.9812 16.1756 16.3158 16.0565 16.6862 16.0365C17.4634 15.9689 18.0926 16.239 18.574 16.8468ZM13.5793 17.8002C13.8456 17.8708 14.1174 17.9187 14.3919 17.9432L14.2007 18.3246C13.7756 18.3289 13.3932 18.1938 13.0535 17.9194C12.8686 17.727 12.6775 17.5443 12.48 17.3712C12.4098 17.2677 12.3536 17.1555 12.3126 17.0374C12.6658 17.4083 13.088 17.6625 13.5793 17.8002ZM15.0371 18.2769C15.1132 18.1731 15.1773 18.0612 15.2283 17.9432C15.2977 17.8496 15.3854 17.786 15.4913 17.7525C15.7629 17.5222 16.0816 17.3951 16.4473 17.3712C16.7266 17.369 16.87 17.512 16.8774 17.8002C16.8823 17.929 16.8662 18.0579 16.8297 18.1816C16.7866 18.4185 16.675 18.6171 16.4951 18.7775C16.1273 18.9324 15.745 18.9801 15.3479 18.9205C15.2483 18.8872 15.1686 18.8316 15.1089 18.7537C15.0206 18.6062 14.9967 18.4473 15.0371 18.2769ZM18.3591 18.8252C17.6139 18.9324 17.2474 18.6066 17.2597 17.8479V17.3712H17.5944C17.7935 17.4193 17.9861 17.4913 18.1679 17.5857C18.3732 17.7336 18.4848 17.9322 18.5025 18.1816H18.5503C18.5778 18.425 18.5141 18.6396 18.3591 18.8252ZM17.3314 20.5176C17.2792 20.2586 17.2552 19.9948 17.2597 19.7306C17.2597 19.6685 17.2613 19.6073 17.2638 19.5466C17.2638 19.5445 17.2638 19.5424 17.2638 19.5402C17.2663 19.4808 17.2701 19.4221 17.275 19.3641C17.275 19.3482 17.2759 19.3319 17.2766 19.3157C17.2771 19.3062 17.2775 19.2966 17.2781 19.287C17.2792 19.2728 17.2805 19.2586 17.282 19.2442C17.2834 19.2302 17.2853 19.2158 17.2872 19.2015C17.2888 19.1904 17.2902 19.179 17.292 19.1679C17.2963 19.1413 17.3012 19.1144 17.307 19.087C17.5648 19.1051 17.8207 19.1449 18.0718 19.2062C18.2303 19.2768 18.3259 19.396 18.3586 19.5637C18.4177 19.7641 18.4177 19.9706 18.3586 20.1835C18.2665 20.3815 18.1365 20.5597 17.9762 20.7082C17.7249 20.7525 17.51 20.689 17.3314 20.5176ZM16.6384 21.8048C16.6238 22.1753 16.4645 22.4693 16.1604 22.6867C15.4117 22.8316 14.9736 22.5218 14.846 21.7573C14.7274 21.2219 14.9106 21.047 15.3957 21.2326C15.7859 21.2313 16.1733 21.1669 16.5428 21.042C16.5684 21.0483 16.5924 21.0601 16.613 21.0766C16.6336 21.093 16.6504 21.1138 16.6622 21.1374C16.6994 21.3591 16.6913 21.5862 16.6384 21.8048ZM15.8019 20.8036C15.1557 20.7467 14.8848 20.3971 14.9893 19.7548C15.0882 19.5846 15.2235 19.4574 15.3957 19.3734C15.8188 19.1968 16.2757 19.1154 16.734 19.1351C16.7926 19.2193 16.8259 19.3185 16.8296 19.4211C16.994 20.2509 16.6515 20.7117 15.8019 20.8036ZM13.9617 21.9001C13.9537 21.916 13.9458 21.9319 13.9378 21.9478C13.1363 21.2825 12.6185 20.4403 12.3844 19.4211C12.2684 19.1813 12.1956 18.923 12.1693 18.658C12.3844 19.0539 12.6674 19.409 13.0057 19.7073C13.2646 19.9396 13.5674 20.0826 13.9139 20.1363C13.9053 20.3315 13.9379 20.5265 14.0095 20.7084C14.0527 20.7422 14.0687 20.7898 14.0573 20.8514C13.8401 20.8534 13.6489 20.7898 13.4837 20.6607C13.3114 20.5608 13.1577 20.4317 13.0296 20.2794C13.278 20.853 13.5907 21.3967 13.9617 21.9001ZM12.5756 18.42C12.9613 18.6833 13.3915 18.8264 13.8661 18.8491V19.3257C13.1769 19.1644 12.6192 18.799 12.1931 18.2293C12.1931 18.1975 12.2091 18.1816 12.2409 18.1816C12.3384 18.279 12.4516 18.3596 12.5756 18.42ZM12.0976 21.9716C12.2717 22.0409 12.4151 22.1601 12.5278 22.3291C13.0042 22.6624 13.4981 22.9721 14.0095 23.2585C13.421 23.1 12.9111 22.806 12.48 22.3765C12.329 22.2657 12.1994 22.1285 12.0976 21.9716ZM17.0447 21.0422C17.0786 20.972 17.1344 20.9403 17.2119 20.9469C17.232 20.9812 17.2638 21.0051 17.3075 21.0184C17.5988 21.0323 17.8856 21.0403 18.1679 21.0422C18.3065 21.4473 18.2587 21.8287 18.0245 22.1863C17.915 22.432 17.7238 22.5591 17.4509 22.5678C17.4143 22.5652 17.3786 22.5555 17.3458 22.5391C17.3129 22.5228 17.2837 22.5001 17.2597 22.4724C17.0498 22.2239 16.9701 21.9378 17.0208 21.6143C17.0129 21.4232 17.0207 21.232 17.0447 21.0422ZM14.5592 9.26677C14.6104 8.80512 14.6661 8.34427 14.7265 7.88423C14.8341 8.04506 14.9148 8.22226 14.9655 8.40887C14.9513 8.49146 14.9684 8.5764 15.0133 8.6472C15.1557 8.08492 15.4026 7.5764 15.7541 7.12169C15.7622 7.28097 15.7542 7.44068 15.7302 7.59835C15.8222 8.69761 15.9257 9.79414 16.0409 10.8878C15.8828 10.4229 15.7314 9.96204 15.5868 9.50534V10.5541C15.4396 10.5684 15.2912 10.5438 15.1566 10.4826C14.94 10.2631 14.7808 10.0168 14.6787 9.74367C14.385 10.0934 14.0345 10.3557 13.6271 10.5306C13.9436 10.1134 14.2543 9.69215 14.5592 9.26677ZM16.8296 3.02154H17.0208C16.9707 3.10528 16.891 3.13706 16.7817 3.11688C16.2438 3.13793 15.7084 3.20171 15.1805 3.30762C15.144 3.30422 15.1201 3.28834 15.1088 3.25995C15.6504 2.9757 16.2241 2.89622 16.8296 3.02154ZM12.8623 9.79141C13.0062 9.7836 13.1504 9.7916 13.2925 9.81522C12.9118 10.1154 12.5454 10.4332 12.1931 10.7687C12.1453 10.8005 12.0976 10.8005 12.0498 10.7687C11.8176 10.6292 11.5784 10.5019 11.3328 10.3874C11.8089 10.0888 12.3187 9.89012 12.8623 9.79141ZM10.3769 10.8879C10.8578 10.8786 11.296 11.0057 11.6913 11.2692C11.7232 11.3011 11.7232 11.3329 11.6913 11.3647C11.6464 11.3895 11.606 11.4218 11.5718 11.46C11.5718 11.4918 11.5877 11.5077 11.6196 11.5077C12.6597 11.1129 13.7271 11.0255 14.822 11.2454C15.6201 11.5433 16.098 12.1075 16.256 12.9378C16.2515 12.947 16.248 12.9564 16.2442 12.9658C16.2402 12.9706 16.2352 12.9746 16.2297 12.9776L16.2291 12.978C16.2226 12.9815 16.2155 12.984 16.2082 12.9855C15.9477 12.7841 15.6609 12.649 15.3479 12.5803C15.7341 12.7514 16.0368 13.0137 16.256 13.3673C16.4595 13.668 16.5392 14.0018 16.495 14.3684C16.4333 14.8474 16.1784 15.189 15.7302 15.3934C15.1644 15.5067 14.6068 15.475 14.0573 15.2981C12.9857 14.8172 12.221 14.0385 11.763 12.9621C11.9626 12.7386 12.1871 12.5387 12.4322 12.3661C11.7826 12.4474 11.1691 12.6698 10.592 13.0332C10.6163 12.8418 10.704 12.6828 10.855 12.5564C10.9388 12.4009 11.0525 12.2632 11.1896 12.1513C10.7239 12.3609 10.2895 12.6336 9.89868 12.9618C9.57854 13.2775 9.27581 13.6032 8.99049 13.939C8.89103 14.1213 8.7792 14.2966 8.65587 14.4637C8.50537 14.2511 8.40716 14.0061 8.36912 13.7486C8.30683 13.3218 8.30683 12.8883 8.36912 12.4614C8.64561 11.4387 9.31485 10.9144 10.3769 10.8879ZM7.55678 23.14C7.32516 23.0869 7.10057 23.0069 6.8876 22.9016C6.77012 22.9106 6.69043 22.8629 6.64865 22.7586C6.25467 21.6074 6.16698 20.4315 6.38565 19.2307C6.43022 19.0649 6.49443 18.9049 6.57692 18.7541C6.58693 18.8283 6.6108 18.8919 6.64859 18.9447C6.65767 19.1716 6.69789 19.3962 6.76807 19.6122C7.04587 20.3397 7.26176 21.0892 7.41337 21.8528C7.53422 22.2667 7.58208 22.6958 7.55678 23.14ZM7.987 18.5633C7.67744 18.1363 7.50208 17.6596 7.46099 17.1331L7.36538 16.9901C7.31478 17.3375 7.30676 17.6897 7.34151 18.039C7.45309 18.7226 7.56461 19.4059 7.67607 20.0889C7.7079 20.2462 7.7079 20.4083 7.67607 20.5656C7.47069 19.966 7.23963 19.378 6.98296 18.8017C6.84123 18.3792 6.72157 17.9495 6.62453 17.5146C6.5625 17.0876 6.61024 16.6744 6.76794 16.275C6.77727 16.676 6.82526 17.075 6.91129 17.4667C7.03425 16.7804 7.30515 16.1607 7.72406 15.6075C7.75166 16.142 7.84807 16.6707 8.01094 17.1807C8.29943 15.8679 9.05619 14.9303 10.2813 14.3681C10.1002 14.9446 9.96432 15.5343 9.87499 16.132C9.60732 17.1767 9.0258 17.9951 8.13041 18.5871C8.07615 18.6226 8.02834 18.615 7.987 18.5633ZM8.05868 23.283C8.00124 22.7909 8.09685 22.33 8.34543 21.9004C8.46124 21.3038 8.49338 20.694 8.44079 20.0885C8.34692 19.7956 8.29875 19.4901 8.29806 19.1826C8.80904 19.0122 9.21533 18.7103 9.51694 18.2769C9.80749 18.5247 10.0942 18.7871 10.3773 19.0638C10.6832 19.2893 11.0024 19.4963 11.3332 19.6836C11.433 19.871 11.5054 20.0717 11.5483 20.2795C11.6226 21.2372 11.558 22.2007 11.3565 23.14C11.1705 23.3732 11.0027 23.6202 10.8546 23.8789C9.90359 23.7825 8.966 23.5831 8.05868 23.283ZM20.2949 14.4631C19.9133 15.2775 19.2681 15.6272 18.3591 15.5119C18.0982 15.4846 17.85 15.3856 17.6422 15.2259C17.4088 14.9831 17.2495 14.697 17.1641 14.3678V14.2247C17.077 13.8985 17.0527 13.5588 17.0925 13.2236C17.1586 13.0206 17.2781 12.8538 17.4509 12.723C17.2087 12.7734 17.0175 12.9085 16.8774 13.1283C16.7913 12.7754 16.6957 12.4258 16.5906 12.0795C16.7509 11.6407 17.0695 11.3944 17.5465 11.3405C18.3247 11.2784 19.1072 11.3841 19.8408 11.6502C19.898 11.6337 19.898 11.6098 19.8408 11.5787C19.5551 11.3959 19.2507 11.2441 18.9326 11.1257C19.8978 10.8189 20.6944 11.0652 21.3223 11.8647L21.2745 11.8885C21.0155 11.7679 20.7426 11.6798 20.4618 11.6262C20.66 11.776 20.844 11.9436 21.0115 12.1268C21.0359 12.2525 20.9801 12.3161 20.8443 12.3174C20.7112 12.4281 20.5519 12.4837 20.3663 12.4843C20.1182 12.4901 19.8792 12.4981 19.6493 12.5081C20.2237 13.0427 20.4389 13.6944 20.2949 14.4631ZM22.6609 12.5323C23.6871 12.8243 24.1809 13.4996 24.1426 14.5585C23.9547 14.4854 23.7633 14.4218 23.5691 14.3678C22.5091 14.2603 21.6328 13.8153 20.9402 13.0329C20.8825 12.9843 20.8181 12.9442 20.749 12.9137C21.344 12.5747 21.9813 12.4476 22.6609 12.5323ZM22.3263 16.1793C22.3375 16.1508 22.3614 16.135 22.398 16.1317C22.7263 16.2673 23.0723 16.3555 23.4256 16.394L25.0986 16.4417C24.1413 16.6673 23.2172 16.5799 22.3263 16.1793ZM29.592 8.81925C29.0295 9.36795 28.752 10.1472 28.5653 10.9119C28.3208 11.9132 28.1379 12.9004 27.6207 13.8074C27.1602 14.615 26.4542 15.2839 25.6164 15.6916C26.8068 14.4111 28.0165 13.0059 28.3107 11.2846C27.8921 12.2874 27.3138 13.2353 26.5307 13.9902C25.7475 14.7452 24.7504 15.2992 23.6729 15.4599C22.6695 15.6097 21.5446 15.3655 20.897 14.5864C22.0655 15.0481 23.3733 14.95 24.6204 14.7955C24.6775 14.7885 24.738 14.7799 24.7824 14.743C24.8384 14.6969 24.854 14.6192 24.8689 14.5482C25.0295 13.7837 25.5324 13.097 26.214 12.7119C26.4558 12.5753 26.7184 12.4748 26.9466 12.3169C27.2559 12.103 27.4867 11.7939 27.6772 11.47C27.9641 10.9823 28.171 10.4513 28.4546 9.96179C28.7382 9.47218 29.1174 9.01114 29.634 8.77815C29.62 8.79204 29.6059 8.80568 29.592 8.81925ZM30.9777 8.12268C30.4671 8.14816 29.9573 8.17997 29.4482 8.21804C29.1777 8.23751 28.9068 8.25338 28.6356 8.26572V8.02739C28.6192 7.69092 28.6192 7.35717 28.6356 7.02627C28.835 7.153 28.9784 7.32784 29.0658 7.55092C29.0976 7.55092 29.1136 7.53511 29.1136 7.50324C28.9698 7.30509 28.922 7.09057 28.9702 6.85968C29.3459 6.79272 29.6168 6.92776 29.7827 7.26491C29.8146 7.26491 29.8305 7.24904 29.8305 7.21724C29.7588 7.03396 29.6441 6.87047 29.496 6.74046C29.6902 6.66215 29.8656 6.68596 30.022 6.812C30.4497 6.79446 30.7046 6.9931 30.7868 7.40789C30.887 7.5596 30.975 7.719 31.0498 7.88467C31.0801 7.98163 31.0561 8.06105 30.9777 8.12268ZM31.5273 8.02739C31.4274 7.87574 31.3155 7.73227 31.1928 7.59829C31.1415 7.47782 31.1171 7.34774 31.1211 7.21692C31.0459 6.94877 30.9025 6.71832 30.6909 6.52569C31.0694 6.40473 31.3244 6.52389 31.4556 6.88324C31.6214 7.24805 31.6453 7.6296 31.5273 8.02739ZM33.917 8.93315C33.9359 8.45848 33.9438 7.98176 33.9409 7.50293C33.9326 7.31067 33.9086 7.11934 33.8692 6.93092C33.701 6.34458 33.5577 5.75659 33.4393 5.16698C33.9733 5.84998 34.2363 6.62861 34.2283 7.50293C34.2079 7.99391 34.1023 8.47782 33.917 8.93315Z" fill="#F67A45"/>
<path id="Vector_4" d="M4.25877 20.9466C4.29258 20.5406 4.32444 20.1354 4.35435 19.7309C4.08221 19.4756 3.79488 19.2368 3.49393 19.0159L2.65747 18.1816C1.3023 16.7005 0.65704 14.9525 0.721714 12.9376C0.729932 12.8903 0.714 12.8586 0.673924 12.8422C0.479541 13.337 0.327626 13.8474 0.219814 14.3678C0.00123947 15.4906 0.160574 16.5553 0.697819 17.5618C1.57973 19.0056 2.76671 20.1339 4.25877 20.9466Z" fill="#F67A45"/>
<path id="Vector_5" d="M30.5953 22.1861C30.5508 22.2876 30.4947 22.3836 30.4281 22.4722C29.767 23.2271 29.039 23.9211 28.2533 24.5459C23.014 28.4511 17.119 30.1515 10.5681 29.6469C14.3465 31.2944 18.1863 31.4374 22.0873 30.076C26.0689 28.6632 28.9367 26.0412 30.6909 22.2099C30.6777 22.1992 30.6623 22.1915 30.6457 22.1874C30.6293 22.1833 30.612 22.1829 30.5953 22.1861Z" fill="#F67A45"/>
<path id="Vector_6" d="M20.9401 27.5494C23.6564 26.6245 26.11 25.2579 28.301 23.4496C28.7637 23.0201 29.195 22.5581 29.5916 22.0671C29.5783 22.0564 29.5629 22.0487 29.5464 22.0445C29.5299 22.0404 29.5127 22.04 29.496 22.0432C28.4772 22.8067 27.4072 23.4995 26.2935 24.117C21.0416 26.8076 15.4971 27.6816 9.65988 26.739C6.54425 26.1775 3.8039 24.8983 1.4389 22.9016C2.82414 25.6434 5.00691 27.4152 7.98722 28.2171C12.3688 29.2662 16.6864 29.0437 20.9401 27.5494Z" fill="#F67A45"/>
</g>
</g>
</g>
<path id="Vector_7" d="M46.1489 13.6152H43.6599V12.1743C43.6599 11.885 43.5032 11.7403 43.1899 11.7403H42.4763C42.163 11.7403 42.0064 11.885 42.0064 12.1743V18.9447C42.0064 19.1067 42.0412 19.2225 42.1108 19.2919C42.1804 19.3498 42.3023 19.3787 42.4763 19.3787H43.1899C43.364 19.3787 43.4858 19.3498 43.5554 19.2919C43.6251 19.2225 43.6599 19.1067 43.6599 18.9447V16.7921H42.7896V15.1429H46.1489V19.1704C46.1489 20.4434 45.4178 21.08 43.9558 21.08H41.7105C40.2484 21.08 39.5174 20.4434 39.5174 19.1704V11.9486C39.5174 10.6756 40.2484 10.039 41.7105 10.039H43.9558C45.4178 10.039 46.1489 10.6756 46.1489 11.9486V13.6152ZM52.0676 21.08H49.5787V17.5038L46.7938 10.039H49.335L50.8144 15.2297L52.1895 10.039H54.7307L52.0676 17.5212V21.08ZM57.7241 21.08H55.5311V10.039H58.2463L60.0739 16.2886L61.9014 10.039H64.6169V21.08H62.4238V13.6673L60.9964 18.6843H59.1514L57.7241 13.6846V21.08ZM72.141 11.8618H68.6774V14.8998H71.5841V16.6185H68.6774V21.08H66.1884V10.039H72.141V11.8618ZM73.1928 10.039H75.6644V21.08H73.1928V10.039ZM83.1363 10.039V11.8618H81.0998V21.08H78.6109V11.8618H76.5918V10.039H83.1363ZM86.1424 10.039H88.4748C89.9368 10.039 90.6678 10.6756 90.6678 11.9486V19.153C90.6678 20.4377 89.9368 21.08 88.4748 21.08H86.1424C84.6692 21.08 83.9319 20.4377 83.9319 19.153V11.9486C83.9319 10.6756 84.6692 10.039 86.1424 10.039ZM88.1789 18.8232V12.2958C88.1789 12.0065 88.0284 11.8618 87.7263 11.8618H86.8909C86.5776 11.8618 86.4209 12.0065 86.4209 12.2958V18.8232C86.4209 19.1126 86.5776 19.2572 86.8909 19.2572H87.7263C88.0284 19.2572 88.1789 19.1126 88.1789 18.8232Z" fill="white"/>
</g>
</svg>
