<svg width="92" height="31" viewBox="0 0 92 31" fill="none" xmlns="http://www.w3.org/2000/svg">
<g id="favicon 1">
<g id="Clip path group">
<mask id="mask0_131_3" style="mask-type:luminance" maskUnits="userSpaceOnUse" x="0" y="0" width="36" height="31">
<g id="clip0_2176_44">
<path id="Vector" d="M35.7131 0H0V31H35.7131V0Z" fill="white"/>
</g>
</mask>
<g mask="url(#mask0_131_3)">
<g id="Group">
<path id="Vector_2" d="M2.99209 11.9364C4.3105 7.66568 6.99517 4.5749 11.046 2.66403C15.591 0.802719 20.0043 1.06504 24.286 3.451C24.6658 3.19931 25.0326 2.92883 25.3853 2.64057C25.3464 2.5779 25.2981 2.52161 25.2419 2.47372C23.932 1.57361 22.477 0.904343 20.9401 0.495046C19.9634 0.274221 18.9736 0.114863 17.9768 0.0179142C14.2407 -0.146976 10.8311 0.814431 7.74808 2.90214C4.5669 5.2026 2.50364 8.26162 1.5583 12.0793C1.21714 13.8419 1.58357 15.4469 2.65761 16.8942C2.48107 15.2223 2.59256 13.5697 2.99209 11.9364Z" fill="#F67A45"/>
<path id="Vector_3" d="M35.7096 7.40745C35.6999 6.93724 35.4609 6.74653 34.9926 6.83538C34.9905 6.68962 34.9663 6.54497 34.921 6.40634C34.8091 6.00053 34.5462 5.77818 34.1323 5.73931C34.0227 5.45703 33.8866 5.18569 33.726 4.92887C33.4298 4.49916 33.0236 4.30846 32.5072 4.35677L32.077 4.45211C32.8459 5.11227 33.2441 5.95451 33.2718 6.97885C33.3258 7.53015 33.3018 8.08635 33.2001 8.64739C33.1158 9.21804 32.8848 9.71863 32.5071 10.1491C32.3838 10.2285 32.2563 10.2761 32.1247 10.2921C32.2679 10.1724 32.3754 10.0157 32.4353 9.83922C32.7345 9.11295 32.8888 8.33553 32.8896 7.55042C32.8789 6.52513 32.5682 5.60347 31.9578 4.78542C31.4571 4.27955 30.9075 4.22391 30.3087 4.6185C29.7493 5.19482 29.4388 5.88608 29.3769 6.69228C29.1066 6.77611 28.8228 6.80841 28.5404 6.78764C28.465 6.08175 28.2181 5.44613 27.7996 4.88075C27.6629 4.71185 27.4918 4.57373 27.2978 4.4755C26.6768 4.44372 26.0546 4.44372 25.4336 4.4755C25.2275 4.55532 25.0403 4.6771 24.8839 4.83308C24.7266 5.07537 24.5753 5.32168 24.4299 5.57202C24.2991 5.61018 24.1713 5.65798 24.0475 5.71502C23.6239 6.12335 23.4168 6.6239 23.4261 7.21674C23.0272 7.20087 22.6276 7.2168 22.2313 7.26436C22.4968 7.56878 22.5366 7.90246 22.3508 8.26547C22.3447 8.02057 22.2961 7.77858 22.2068 7.55042C22.1358 7.38271 22.0163 7.29529 21.8483 7.28804C21.8144 7.34768 21.7743 7.40361 21.7288 7.45488C21.5986 7.86966 21.6702 8.24309 21.9439 8.57528C22.4376 8.59909 22.9315 8.60703 23.4256 8.59909C23.5071 8.95212 23.6442 9.29002 23.8319 9.60021C23.9439 9.75508 24.0952 9.84256 24.286 9.86253C24.5899 10.1813 24.877 10.5154 25.1463 10.8636L25.3375 10.959C25.895 10.9934 26.4542 10.9854 27.0105 10.9351C27.1398 10.9201 27.271 10.9366 27.3926 10.9831C27.2308 11.264 27.0204 11.5141 26.7713 11.722C26.4414 11.8388 26.1217 11.9823 25.8153 12.1511C25.2753 12.4671 24.869 12.9041 24.5964 13.4621C24.121 12.4405 23.3165 11.932 22.1827 11.9366C21.3399 10.581 20.1609 10.1519 18.6456 10.6493C18.3244 10.4093 17.9703 10.2167 17.5941 10.0772C17.5119 9.79792 17.4638 9.50981 17.4508 9.21909C17.4429 9.07562 17.4509 8.93172 17.4747 8.78999L17.5464 8.7185C17.849 8.72167 18.1518 8.72167 18.4546 8.7185C18.6808 8.6676 18.8321 8.53257 18.9086 8.31321C18.9208 7.9453 18.9608 7.57876 19.0281 7.2168C19.0751 7.0357 19.0911 6.84499 19.076 6.64473C19.1722 6.65248 19.2691 6.64442 19.3627 6.62086C19.4293 6.57529 19.4612 6.51174 19.4583 6.43021C19.3025 6.04792 19.1269 5.67397 18.9323 5.30984C18.9835 5.17253 18.9919 5.02295 18.9562 4.88082C18.8418 4.65307 18.7536 4.41319 18.6932 4.16573C18.7564 4.08633 18.8202 4.00686 18.8844 3.92731C19.2534 3.57255 19.3649 3.14351 19.219 2.64019C19.1287 2.83328 19.0076 3.01046 18.8604 3.16484C18.9309 2.87179 18.9469 2.56987 18.9082 2.25907C18.8731 2.17271 18.8248 2.09231 18.7649 2.02073C18.703 2.3034 18.5676 2.54176 18.3587 2.73583C18.3447 2.774 18.3197 2.80718 18.2869 2.83116C18.2631 2.64146 18.255 2.4501 18.263 2.25907C18.2066 2.09919 18.117 1.953 18 1.83006C18.011 2.18937 17.8676 2.4754 17.5698 2.68816C17.5698 2.59912 17.5937 2.51168 17.6415 2.42584C17.6256 2.40201 17.6096 2.37817 17.5937 2.35433C17.057 2.66013 16.4834 2.81905 15.8729 2.83109C16.1116 2.70453 16.3506 2.57741 16.5898 2.44975C16.4566 2.40313 16.3133 2.38721 16.1597 2.402C15.6457 2.43099 15.1425 2.56065 14.6787 2.78357C14.6345 2.82185 14.5867 2.82979 14.5352 2.80741C14.7579 2.60795 15.0178 2.45406 15.3 2.35448C15.2836 2.31451 15.2518 2.29862 15.2044 2.30682C13.7087 2.69656 13.0475 3.66591 13.2205 5.21488C13.3177 5.82329 13.4945 6.41632 13.7465 6.97885C13.7929 7.3297 13.7685 7.68627 13.6749 8.02758C13.508 8.35934 13.3163 8.67808 13.1012 8.98101C12.0629 9.09373 11.1866 9.52277 10.4725 10.2683C7.98187 10.3924 6.71519 11.6954 6.67255 14.1774C6.60833 14.2331 6.55202 14.2973 6.50527 14.3681C6.10948 14.7442 5.86252 15.2051 5.76438 15.7507C5.74845 16.1954 5.73252 16.6403 5.71659 17.0855C5.44967 17.4747 5.19472 17.8719 4.95175 18.2772C4.93507 18.6805 5.02274 19.0619 5.21476 19.4213C5.12888 19.6064 5.05699 19.7976 4.99969 19.9934C4.84382 20.6809 4.78744 21.3872 4.83227 22.0907C3.82089 21.6345 2.87298 21.0496 2.01219 20.3506C1.20461 19.667 0.551397 18.8644 0.0525272 17.9431C0.0070388 18.0108 -0.00889206 18.0902 0.00473444 18.1815C0.0514997 18.6688 0.155772 19.1488 0.315388 19.6117C0.988098 21.3234 2.12729 22.6264 3.73295 23.5209C5.57434 24.5976 7.54997 25.3286 9.65987 25.7139C11.1348 26.0367 12.6433 26.1807 14.1528 26.143C15.5153 26.1806 16.8777 26.0687 18.2156 25.8092C20.5791 25.4742 22.8415 24.7988 25.003 23.7831C26.9134 22.9382 28.5941 21.7703 30.0453 20.2792C31.6995 18.4559 32.4802 16.3106 32.3874 13.8434C32.0983 15.246 31.5247 16.5174 30.6666 17.6572C29.1623 19.5066 27.3221 20.9288 25.146 21.9239C23.5736 22.6168 21.9419 23.1673 20.2706 23.5686C19.937 23.6208 19.6024 23.6684 19.2668 23.7117C19.2029 23.4729 19.0978 23.247 18.9561 23.0442C18.9481 22.9727 18.9402 22.9012 18.9322 22.8297C19.0152 22.0426 18.983 21.2477 18.8366 20.4699C18.8624 20.2145 18.8943 19.9603 18.9322 19.7071C19.0449 19.5539 19.1165 19.379 19.1474 19.1825C19.1632 18.9442 19.1791 18.7058 19.1952 18.4674C19.6206 17.9204 19.8755 17.3006 19.9599 16.6082C20.9859 17.2872 22.1013 17.4779 23.3057 17.1802C24.0271 17.3028 24.7441 17.4458 25.4566 17.6093C25.7001 17.5866 25.9361 17.5135 26.1497 17.3948C26.4276 17.1733 26.6836 16.9258 26.9145 16.6559C27.5334 16.03 28.0423 15.3048 28.4201 14.5105C28.8546 13.3724 29.1593 12.1891 29.3286 10.9831C29.4128 10.556 29.5662 10.1454 29.7827 9.76742C29.8146 9.73561 29.8464 9.73561 29.8783 9.76742C29.9032 9.81225 29.9356 9.85255 29.9739 9.88665C30.1736 10.3164 30.4923 10.6262 30.9299 10.816C31.6318 10.8175 32.3328 10.7858 33.0329 10.7207C33.22 10.6318 33.3898 10.5107 33.5348 10.3631C33.7752 10.0426 33.9684 9.68942 34.1084 9.31432C34.2287 9.2806 34.3481 9.24092 34.4669 9.19516C34.8036 8.897 34.979 8.52351 34.9929 8.07482C35.5065 8.15052 35.7454 7.92807 35.7096 7.40745ZM28.2054 7.55042C28.1875 7.98349 28.1315 8.41421 28.0381 8.83761C28.0142 8.52023 28.0063 8.20235 28.0142 7.88417C27.884 6.96818 27.7167 6.06236 27.5124 5.16676C28.018 5.87794 28.2491 6.6725 28.2054 7.55042ZM23.7124 8.5516H23.8558C23.8115 8.86588 23.7637 8.86582 23.7124 8.5516ZM23.6168 7.16906C23.6608 7.00148 23.7405 6.85844 23.8558 6.73996C23.9852 6.87097 24.0648 7.02987 24.0947 7.21674C23.9339 7.23212 23.7715 7.21593 23.6168 7.16906ZM24.0712 8.69463C24.0483 8.65068 24.04 8.60064 24.0472 8.55166C24.1691 8.54869 24.2409 8.48514 24.2624 8.36095C24.309 8.10935 24.333 7.85404 24.3341 7.59817C24.2868 7.32084 24.1896 7.05436 24.0472 6.81151C24.1902 6.66469 24.3416 6.65676 24.5014 6.7877C24.6438 6.99893 24.7188 7.24824 24.7164 7.50281C24.767 7.93979 24.6953 8.35295 24.5014 8.74231C24.3465 8.93104 24.2031 8.91517 24.0712 8.69463ZM25.792 9.40974C25.6981 9.71013 25.515 9.94053 25.2423 10.101C25.0684 10.1328 24.8902 10.1328 24.7163 10.101C24.6401 10.0726 24.5738 10.0229 24.5251 9.95801C24.7681 10.022 24.9832 9.96632 25.1704 9.7911C25.5053 9.06843 25.6406 8.30565 25.5766 7.50281C25.5472 6.97196 25.409 6.45271 25.1704 5.97727C25.0413 5.7056 24.8263 5.57054 24.5251 5.57209C24.8784 5.32691 25.205 5.36662 25.5049 5.69126C25.7509 6.13281 25.9053 6.61918 25.959 7.12145C26.0531 7.88783 25.9974 8.65061 25.792 9.40974ZM26.3894 10.2202C26.5854 9.87995 26.7227 9.50932 26.7957 9.12374C26.8897 8.58874 26.9298 8.04574 26.9152 7.50281C26.8767 6.58496 26.6297 5.72686 26.1744 4.92849C26.1215 4.81216 26.028 4.71893 25.9114 4.66617C26.3002 4.71399 26.595 4.91263 26.7956 5.2621C27.134 5.86949 27.3013 6.52104 27.2975 7.21674C27.4002 8.02001 27.3285 8.81448 27.0823 9.60014C26.9925 9.80778 26.8716 10.0007 26.7239 10.1722C26.6133 10.2421 26.502 10.2581 26.3894 10.2202ZM17.427 3.78431C17.8032 3.7172 18.1458 3.79667 18.4547 4.02272C18.5405 4.34336 18.6362 4.66118 18.7415 4.97616C18.3306 4.86359 17.9483 4.9192 17.5943 5.143C17.8552 5.32483 18.1358 5.47676 18.4308 5.59592C18.5292 5.45684 18.6726 5.35581 18.837 5.30984C18.977 5.63342 19.089 5.96837 19.1716 6.31104C19.0389 6.35934 18.9115 6.40702 18.7892 6.45402C18.701 6.44081 18.6373 6.47256 18.598 6.54937C18.669 6.5942 18.7542 6.61119 18.837 6.59705C18.8481 6.72613 18.8318 6.85609 18.7892 6.97847C18.6687 7.04866 18.5404 7.10464 18.4069 7.14532C18.5328 7.16894 18.6613 7.17694 18.7892 7.16912C18.7617 7.31048 18.7134 7.44707 18.6459 7.5743C18.7538 7.78671 18.7618 8.00123 18.6697 8.21792C18.589 8.28357 18.487 8.31749 18.383 8.31321C18.1962 8.28016 18.0124 8.23236 17.8333 8.17024C17.3555 8.05169 16.9024 7.84995 16.4949 7.5743C16.3069 7.27775 16.1847 6.94456 16.1365 6.59705C15.8443 6.81052 15.5894 6.76284 15.3717 6.45402C15.1663 6.13539 15.1584 5.81757 15.3478 5.50059C15.3797 5.4847 15.4116 5.46881 15.4434 5.45292C15.6491 5.41934 15.8164 5.4829 15.9452 5.64359C16.0634 5.9112 16.2075 6.16667 16.3754 6.40634L16.4232 5.88171C16.5627 5.31333 16.8973 4.90016 17.427 4.64218C17.408 4.46201 17.3841 4.27927 17.3553 4.094C17.3545 3.98659 17.379 3.88051 17.427 3.78431ZM17.164 10.3155C17.0298 10.4977 16.8686 10.6584 16.6859 10.7923C16.6701 10.7685 16.6541 10.7446 16.6381 10.7208C16.7842 10.3913 16.8963 10.0478 16.9728 9.69575C17.0298 9.71819 17.0617 9.76587 17.0684 9.83884L17.164 10.3155ZM18.574 16.8468C18.5829 16.9212 18.5431 16.9529 18.4545 16.9421C18.5055 16.9866 18.5693 17.0025 18.6457 16.9897C18.7674 16.9707 18.8824 16.9215 18.9802 16.8468C18.9962 16.8864 19.0121 16.9262 19.028 16.9659C19.0071 17.1658 18.9274 17.3327 18.7891 17.4665L17.8809 16.9659C17.2913 16.7457 16.7019 16.7457 16.1124 16.9659C15.7323 17.1793 15.3321 17.355 14.9176 17.4906C14.5685 17.5449 14.2339 17.4973 13.9139 17.3475C13.5461 17.131 13.2219 16.8481 12.9579 16.5133C12.8888 16.3924 12.8326 16.2646 12.7906 16.1318C13.4672 16.9184 14.3196 17.2123 15.3478 17.0138L15.061 16.9661C15.2526 16.7593 15.4604 16.568 15.6824 16.394C15.9812 16.1756 16.3158 16.0565 16.6861 16.0366C17.4633 15.9689 18.0925 16.239 18.574 16.8468ZM13.5793 17.8002C13.8456 17.8708 14.1174 17.9187 14.3918 17.9432L14.2006 18.3246C13.7756 18.3289 13.3932 18.1938 13.0535 17.9194C12.8686 17.727 12.6774 17.5443 12.48 17.3712C12.4098 17.2677 12.3535 17.1555 12.3126 17.0374C12.6657 17.4083 13.088 17.6625 13.5793 17.8002ZM15.0371 18.2769C15.1131 18.1731 15.1773 18.0612 15.2283 17.9432C15.2977 17.8496 15.3853 17.786 15.4913 17.7525C15.7629 17.5222 16.0815 17.3951 16.4472 17.3712C16.7266 17.369 16.87 17.512 16.8774 17.8002C16.8823 17.929 16.8662 18.0579 16.8297 18.1816C16.7865 18.4185 16.6749 18.6171 16.495 18.7775C16.1273 18.9324 15.7449 18.9801 15.3479 18.9205C15.2483 18.8872 15.1686 18.8316 15.1089 18.7537C15.0206 18.6062 14.9966 18.4473 15.0371 18.2769ZM18.3591 18.8252C17.6138 18.9324 17.2474 18.6066 17.2597 17.8479V17.3712H17.5943C17.7935 17.4193 17.9861 17.4913 18.1678 17.5857C18.3732 17.7336 18.4848 17.9322 18.5024 18.1816H18.5502C18.5778 18.425 18.5141 18.6396 18.3591 18.8252ZM17.3314 20.5176C17.2792 20.2586 17.2552 19.9948 17.2597 19.7306C17.2597 19.6685 17.2612 19.6073 17.2637 19.5466C17.2637 19.5445 17.2637 19.5424 17.2637 19.5402C17.2663 19.4808 17.27 19.4221 17.2749 19.3641C17.2749 19.3482 17.2759 19.3319 17.2766 19.3157C17.277 19.3062 17.2774 19.2966 17.2781 19.287C17.2792 19.2728 17.2805 19.2586 17.2819 19.2442C17.2834 19.2302 17.2852 19.2158 17.2872 19.2015C17.2887 19.1904 17.2902 19.179 17.292 19.1679C17.2963 19.1413 17.3012 19.1144 17.3069 19.087C17.5648 19.1051 17.8206 19.1449 18.0717 19.2062C18.2303 19.2768 18.3259 19.396 18.3585 19.5637C18.4177 19.7641 18.4177 19.9706 18.3585 20.1835C18.2664 20.3815 18.1365 20.5597 17.9761 20.7082C17.7249 20.7525 17.51 20.689 17.3314 20.5176ZM16.6383 21.8048C16.6238 22.1753 16.4645 22.4693 16.1604 22.6867C15.4117 22.8316 14.9736 22.5218 14.8459 21.7573C14.7273 21.2219 14.9106 21.047 15.3956 21.2326C15.7858 21.2313 16.1732 21.1669 16.5427 21.042C16.5684 21.0483 16.5923 21.0601 16.613 21.0766C16.6336 21.093 16.6504 21.1138 16.6622 21.1374C16.6994 21.3591 16.6912 21.5862 16.6383 21.8048ZM15.8019 20.8036C15.1556 20.7467 14.8847 20.3971 14.9893 19.7548C15.0881 19.5846 15.2235 19.4574 15.3956 19.3734C15.8187 19.1968 16.2757 19.1154 16.7339 19.1351C16.7926 19.2193 16.8259 19.3185 16.8295 19.4211C16.994 20.2509 16.6514 20.7117 15.8019 20.8036ZM13.9617 21.9001C13.9537 21.916 13.9458 21.9319 13.9378 21.9478C13.1362 21.2825 12.6184 20.4403 12.3844 19.4211C12.2684 19.1813 12.1955 18.923 12.1692 18.658C12.3843 19.0539 12.6674 19.409 13.0057 19.7073C13.2646 19.9396 13.5673 20.0826 13.9139 20.1363C13.9053 20.3315 13.9379 20.5265 14.0095 20.7084C14.0527 20.7422 14.0687 20.7898 14.0573 20.8514C13.8401 20.8534 13.6489 20.7898 13.4837 20.6607C13.3113 20.5608 13.1577 20.4317 13.0296 20.2794C13.278 20.853 13.5906 21.3967 13.9617 21.9001ZM12.5755 18.42C12.9613 18.6833 13.3915 18.8264 13.8661 18.8491V19.3257C13.1768 19.1645 12.6192 18.799 12.1931 18.2293C12.1931 18.1975 12.2091 18.1816 12.2409 18.1816C12.3384 18.279 12.4515 18.3596 12.5755 18.42ZM12.0976 21.9716C12.2717 22.0409 12.4151 22.1601 12.5277 22.3291C13.0042 22.6624 13.4981 22.9721 14.0095 23.2585C13.4209 23.1 12.9111 22.806 12.48 22.3765C12.329 22.2657 12.1994 22.1285 12.0976 21.9716ZM17.0446 21.0422C17.0786 20.972 17.1343 20.9403 17.2119 20.9469C17.232 20.9812 17.2638 21.0051 17.3075 21.0184C17.5987 21.0323 17.8855 21.0403 18.1678 21.0422C18.3064 21.4474 18.2586 21.8287 18.0245 22.1863C17.9149 22.432 17.7237 22.5591 17.4508 22.5678C17.4143 22.5652 17.3785 22.5555 17.3457 22.5391C17.3129 22.5228 17.2837 22.5001 17.2597 22.4724C17.0497 22.2239 16.9701 21.9378 17.0207 21.6143C17.0128 21.4232 17.0206 21.232 17.0446 21.0422ZM14.5591 9.26677C14.6103 8.80512 14.6661 8.34427 14.7265 7.88423C14.8341 8.04506 14.9148 8.22226 14.9654 8.40888C14.9513 8.49146 14.9683 8.5764 15.0132 8.6472C15.1556 8.08493 15.4026 7.5764 15.7541 7.1217C15.7622 7.28097 15.7542 7.44068 15.7302 7.59835C15.8221 8.69761 15.9257 9.79414 16.0408 10.8878C15.8827 10.4229 15.7314 9.96204 15.5868 9.50535V10.5541C15.4396 10.5684 15.2912 10.5438 15.1566 10.4826C14.94 10.2631 14.7807 10.0168 14.6787 9.74367C14.385 10.0934 14.0345 10.3557 13.6271 10.5306C13.9436 10.1134 14.2543 9.69215 14.5591 9.26677ZM16.8295 3.02154H17.0207C16.9706 3.10528 16.8909 3.13707 16.7817 3.11688C16.2437 3.13793 15.7083 3.20171 15.1805 3.30762C15.1439 3.30422 15.1201 3.28834 15.1088 3.25996C15.6504 2.9757 16.224 2.89622 16.8295 3.02154ZM12.8623 9.79141C13.0061 9.7836 13.1504 9.7916 13.2925 9.81522C12.9118 10.1154 12.5453 10.4332 12.1931 10.7687C12.1453 10.8005 12.0976 10.8005 12.0498 10.7687C11.8176 10.6292 11.5783 10.5019 11.3328 10.3874C11.8089 10.0888 12.3187 9.89012 12.8623 9.79141ZM10.3769 10.8879C10.8578 10.8786 11.2959 11.0057 11.6913 11.2692C11.7232 11.3011 11.7232 11.3329 11.6913 11.3647C11.6464 11.3895 11.6059 11.4218 11.5717 11.46C11.5717 11.4918 11.5876 11.5077 11.6195 11.5077C12.6596 11.1129 13.7271 11.0255 14.822 11.2454C15.62 11.5433 16.098 12.1075 16.256 12.9378C16.2515 12.947 16.248 12.9564 16.2442 12.9658C16.2402 12.9706 16.2352 12.9746 16.2297 12.9776L16.229 12.978C16.2225 12.9815 16.2154 12.984 16.2082 12.9855C15.9477 12.7841 15.6609 12.649 15.3478 12.5803C15.7341 12.7514 16.0368 13.0137 16.256 13.3673C16.4595 13.668 16.5391 14.0018 16.4949 14.3684C16.4333 14.8474 16.1784 15.189 15.7302 15.3934C15.1644 15.5067 14.6067 15.475 14.0573 15.2981C12.9857 14.8172 12.221 14.0385 11.763 12.9621C11.9625 12.7386 12.187 12.5387 12.4322 12.3662C11.7825 12.4474 11.1691 12.6698 10.5919 13.0332C10.6162 12.8418 10.7039 12.6828 10.8549 12.5564C10.9388 12.4009 11.0525 12.2632 11.1896 12.1513C10.7238 12.3609 10.2895 12.6336 9.89864 12.9618C9.5785 13.2775 9.27577 13.6032 8.99045 13.939C8.89099 14.1213 8.77916 14.2966 8.65583 14.4637C8.50534 14.2511 8.40712 14.0061 8.36908 13.7486C8.30679 13.3218 8.30679 12.8883 8.36908 12.4614C8.64557 11.4387 9.31481 10.9144 10.3769 10.8879ZM7.55674 23.14C7.32513 23.0869 7.10053 23.0069 6.88757 22.9016C6.77008 22.9106 6.69039 22.8629 6.64861 22.7586C6.25463 21.6074 6.16694 20.4315 6.38561 19.2307C6.43018 19.0649 6.49439 18.9049 6.57688 18.7541C6.58689 18.8284 6.61076 18.8919 6.64855 18.9447C6.65763 19.1716 6.69785 19.3962 6.76803 19.6122C7.04583 20.3397 7.26172 21.0892 7.41333 21.8528C7.53418 22.2667 7.58204 22.6958 7.55674 23.14ZM7.98697 18.5633C7.6774 18.1363 7.50204 17.6596 7.46095 17.1331L7.36535 16.9901C7.31475 17.3375 7.30673 17.6897 7.34147 18.039C7.45306 18.7226 7.56457 19.4059 7.67603 20.0889C7.70786 20.2462 7.70786 20.4083 7.67603 20.5656C7.47065 19.966 7.23959 19.378 6.98292 18.8018C6.84119 18.3792 6.72153 17.9495 6.6245 17.5146C6.56246 17.0876 6.6102 16.6744 6.7679 16.275C6.77723 16.676 6.82522 17.075 6.91125 17.4667C7.03421 16.7804 7.30511 16.1607 7.72402 15.6075C7.75162 16.142 7.84803 16.6707 8.0109 17.1807C8.29939 15.8679 9.05616 14.9303 10.2812 14.3681C10.1002 14.9446 9.96428 15.5344 9.87496 16.132C9.60729 17.1767 9.02576 17.9951 8.13037 18.5871C8.07611 18.6226 8.02831 18.615 7.98697 18.5633ZM8.05864 23.283C8.0012 22.7909 8.09681 22.33 8.34539 21.9004C8.4612 21.3038 8.49334 20.694 8.44075 20.0885C8.34689 19.7956 8.29871 19.4901 8.29803 19.1826C8.809 19.0122 9.21529 18.7103 9.5169 18.2769C9.80745 18.5247 10.0942 18.7871 10.3772 19.0638C10.6831 19.2893 11.0024 19.4963 11.3332 19.6836C11.433 19.871 11.5054 20.0717 11.5482 20.2795C11.6225 21.2372 11.5579 22.2007 11.3565 23.14C11.1705 23.3732 11.0027 23.6202 10.8546 23.8789C9.90355 23.7825 8.96596 23.5831 8.05864 23.283ZM20.2948 14.4631C19.9133 15.2775 19.268 15.6272 18.3591 15.5119C18.0981 15.4846 17.8499 15.3856 17.6421 15.2259C17.4088 14.9831 17.2494 14.697 17.1641 14.3678V14.2247C17.077 13.8985 17.0527 13.5588 17.0924 13.2236C17.1586 13.0206 17.278 12.8538 17.4508 12.723C17.2087 12.7734 17.0175 12.9085 16.8773 13.1283C16.7912 12.7754 16.6956 12.4258 16.5905 12.0795C16.7508 11.6407 17.0695 11.3944 17.5464 11.3405C18.3247 11.2784 19.1072 11.3841 19.8408 11.6502C19.8979 11.6337 19.8979 11.6098 19.8408 11.5787C19.5551 11.3959 19.2506 11.2441 18.9326 11.1257C19.8978 10.8189 20.6943 11.0652 21.3222 11.8647L21.2744 11.8885C21.0155 11.7679 20.7425 11.6798 20.4618 11.6262C20.66 11.776 20.844 11.9436 21.0115 12.1268C21.0359 12.2525 20.9801 12.3161 20.8442 12.3174C20.7112 12.4281 20.5519 12.4837 20.3662 12.4843C20.1182 12.4902 19.8791 12.4981 19.6493 12.5081C20.2237 13.0427 20.4389 13.6944 20.2948 14.4631ZM22.6608 12.5323C23.687 12.8243 24.1809 13.4996 24.1425 14.5585C23.9547 14.4854 23.7633 14.4218 23.569 14.3678C22.509 14.2603 21.6327 13.8153 20.9401 13.0329C20.8824 12.9843 20.818 12.9442 20.749 12.9137C21.3439 12.5747 21.9812 12.4476 22.6608 12.5323ZM22.3263 16.1793C22.3375 16.1508 22.3613 16.135 22.398 16.1317C22.7263 16.2673 23.0723 16.3555 23.4256 16.394L25.0985 16.4417C24.1413 16.6673 23.2172 16.5799 22.3263 16.1793ZM29.5919 8.81925C29.0294 9.36795 28.7519 10.1472 28.5653 10.9119C28.3208 11.9132 28.1379 12.9004 27.6207 13.8074C27.1601 14.615 26.4542 15.2839 25.6163 15.6916C26.8068 14.4111 28.0164 13.0059 28.3107 11.2846C27.8921 12.2874 27.3137 13.2353 26.5306 13.9902C25.7475 14.7452 24.7504 15.2992 23.6729 15.4599C22.6695 15.6097 21.5445 15.3655 20.897 14.5864C22.0655 15.0481 23.3732 14.95 24.6204 14.7955C24.6775 14.7885 24.738 14.7799 24.7824 14.743C24.8384 14.6969 24.854 14.6192 24.8688 14.5482C25.0295 13.7837 25.5324 13.097 26.214 12.7119C26.4557 12.5753 26.7184 12.4748 26.9466 12.3169C27.2559 12.103 27.4867 11.7939 27.6771 11.47C27.964 10.9823 28.171 10.4513 28.4546 9.96179C28.7382 9.47218 29.1174 9.01115 29.6339 8.77815C29.62 8.79204 29.6058 8.80568 29.5919 8.81925ZM30.9777 8.12268C30.4671 8.14817 29.9573 8.17997 29.4481 8.21804C29.1776 8.23751 28.9068 8.25338 28.6356 8.26572V8.02739C28.6192 7.69092 28.6192 7.35717 28.6356 7.02628C28.835 7.153 28.9784 7.32784 29.0657 7.55092C29.0976 7.55092 29.1135 7.53511 29.1135 7.50324C28.9698 7.30509 28.922 7.09057 28.9702 6.85968C29.3459 6.79272 29.6167 6.92776 29.7827 7.26491C29.8146 7.26491 29.8305 7.24904 29.8305 7.21724C29.7588 7.03397 29.6441 6.87047 29.4959 6.74046C29.6902 6.66215 29.8656 6.68596 30.022 6.812C30.4496 6.79446 30.7046 6.99311 30.7867 7.40789C30.887 7.5596 30.975 7.719 31.0497 7.88467C31.0801 7.98164 31.0561 8.06106 30.9777 8.12268ZM31.5273 8.02739C31.4273 7.87574 31.3155 7.73227 31.1927 7.59829C31.1415 7.47782 31.1171 7.34775 31.121 7.21693C31.0459 6.94878 30.9025 6.71832 30.6908 6.52569C31.0694 6.40473 31.3243 6.52389 31.4556 6.88324C31.6214 7.24805 31.6453 7.6296 31.5273 8.02739ZM33.9169 8.93315C33.9358 8.45848 33.9438 7.98176 33.9408 7.50293C33.9326 7.31067 33.9086 7.11934 33.8692 6.93092C33.701 6.34459 33.5577 5.75659 33.4393 5.16698C33.9732 5.84998 34.2362 6.62861 34.2283 7.50293C34.2078 7.99391 34.1023 8.47782 33.9169 8.93315Z" fill="#F67A45"/>
<path id="Vector_4" d="M4.25876 20.9466C4.29257 20.5406 4.32443 20.1354 4.35434 19.7309C4.08221 19.4756 3.79487 19.2368 3.49392 19.0159L2.65747 18.1816C1.30229 16.7005 0.657033 14.9525 0.721706 12.9376C0.729924 12.8903 0.713992 12.8586 0.673916 12.8422C0.479533 13.337 0.327618 13.8474 0.219807 14.3678C0.00123184 15.4906 0.160567 16.5553 0.697811 17.5618C1.57972 19.0056 2.7667 20.1339 4.25876 20.9466Z" fill="#F67A45"/>
<path id="Vector_5" d="M30.5953 22.1861C30.5508 22.2876 30.4946 22.3836 30.428 22.4722C29.7669 23.2271 29.039 23.9211 28.2532 24.5459C23.014 28.4511 17.119 30.1515 10.568 29.6469C14.3465 31.2944 18.1862 31.4374 22.0873 30.076C26.0688 28.6632 28.9367 26.0412 30.6908 22.2099C30.6776 22.1992 30.6622 22.1915 30.6457 22.1874C30.6292 22.1833 30.6119 22.1829 30.5953 22.1861Z" fill="#F67A45"/>
<path id="Vector_6" d="M20.9401 27.5494C23.6564 26.6245 26.11 25.2579 28.301 23.4496C28.7637 23.0201 29.195 22.5581 29.5915 22.0671C29.5783 22.0564 29.5629 22.0487 29.5464 22.0445C29.5299 22.0404 29.5127 22.04 29.4959 22.0432C28.4772 22.8067 27.4072 23.4995 26.2935 24.117C21.0416 26.8076 15.4971 27.6816 9.65987 26.739C6.54424 26.1775 3.80389 24.8983 1.4389 22.9016C2.82414 25.6434 5.0069 27.4152 7.98721 28.2171C12.3688 29.2662 16.6864 29.0437 20.9401 27.5494Z" fill="#F67A45"/>
</g>
</g>
</g>
<path id="Vector_7" d="M46.1489 13.6152H43.6599V12.1743C43.6599 11.885 43.5033 11.7403 43.19 11.7403H42.4763C42.163 11.7403 42.0064 11.885 42.0064 12.1743V18.9447C42.0064 19.1067 42.0412 19.2225 42.1108 19.2919C42.1805 19.3498 42.3023 19.3787 42.4763 19.3787H43.19C43.364 19.3787 43.4859 19.3498 43.5555 19.2919C43.6251 19.2225 43.6599 19.1067 43.6599 18.9447V16.7921H42.7896V15.1429H46.1489V19.1704C46.1489 20.4434 45.4179 21.08 43.9558 21.08H41.7105C40.2485 21.08 39.5174 20.4434 39.5174 19.1704V11.9486C39.5174 10.6756 40.2485 10.039 41.7105 10.039H43.9558C45.4179 10.039 46.1489 10.6756 46.1489 11.9486V13.6152ZM52.0677 21.08H49.5787V17.5038L46.7938 10.039H49.335L50.8145 15.2297L52.1895 10.039H54.7307L52.0677 17.5212V21.08ZM57.7242 21.08H55.5311V10.039H58.2463L60.0739 16.2886L61.9015 10.039H64.617V21.08H62.4239V13.6673L60.9964 18.6843H59.1514L57.7242 13.6846V21.08ZM72.1411 11.8618H68.6774V14.8998H71.5841V16.6185H68.6774V21.08H66.1884V10.039H72.1411V11.8618ZM73.1928 10.039H75.6644V21.08H73.1928V10.039ZM83.1363 10.039V11.8618H81.0999V21.08H78.6109V11.8618H76.5919V10.039H83.1363ZM86.1425 10.039H88.4748C89.9368 10.039 90.6679 10.6756 90.6679 11.9486V19.153C90.6679 20.4377 89.9368 21.08 88.4748 21.08H86.1425C84.6692 21.08 83.932 20.4377 83.932 19.153V11.9486C83.932 10.6756 84.6692 10.039 86.1425 10.039ZM88.1789 18.8232V12.2958C88.1789 12.0065 88.0285 11.8618 87.7264 11.8618H86.8909C86.5776 11.8618 86.4209 12.0065 86.4209 12.2958V18.8232C86.4209 19.1126 86.5776 19.2572 86.8909 19.2572H87.7264C88.0285 19.2572 88.1789 19.1126 88.1789 18.8232Z" fill="white"/>
</g>
</svg>
